# xmcd
#
# Track frame offsets:
#	150
#	11068
#	30162
#	43908
#	54361
#	76560
#	96283
#	109932
#	125335
#	143679
#
# Disc length: 2124 seconds
#
# Revision: 1
# Processed by: cddbd v1.5.2PL0 Copyright (c) Steve Scherf et al.
# Submitted via: audiograbber 1.83.01
#
DISCID=73084a0a
DTITLE=Schmeissig - Demo CD 07
DYEAR=2007
DGENRE=Alternative Rock
TTITLE0=On the road again (Willi Nelson)
TTITLE1=Praise you (Fatboy Slim)
TTITLE2=Eastbound and down (Jerry Reed)
TTITLE3=Unknown Stuntman (Lee Majors)
TTITLE4=Sympathy for the devil (Rolling Stones)
TTITLE5=Ich han' nen Deckel (Bläck Fööss)
TTITLE6=Young Ned of the hill (Pogues)
TTITLE7=Civil War (Guns N' Roses)
TTITLE8=Generator (Bad Religion)
TTITLE9=hidden
EXTD=
EXTT0=
EXTT1=
EXTT2=
EXTT3=
EXTT4=
EXTT5=
EXTT6=
EXTT7=
EXTT8=
EXTT9=
PLAYORDER=
